<svg height="32" viewBox="0 0 34 32" width="34" xmlns="http://www.w3.org/2000/svg"><g fill="#444"><path d="m26.007 17.832.033.018-.07-.027c.013 0 .026.003.037.009zm0 0c.01.008.022.012.035.014l-.07-.027z"/><path d="m25.964 17.964c-.025.087-.043.177-.057.267s-.032.18-.057.267l-.073-.02c.025-.088.058-.173.094-.257s.068-.169.094-.256zm0 0c-.025.087-.043.177-.057.267s-.032.179-.057.266l-.073-.02c.025-.087.058-.172.093-.256s.068-.169.093-.256z"/><path d="m23.919 23.335c-.09-.022-.167-.076-.235-.137-.032-.033-.066-.064-.093-.101l-.043-.054-.039-.057c-.102-.152-.183-.318-.257-.485-.073-.168-.137-.34-.198-.513-.059-.173-.115-.348-.167-.524-.104-.351-.198-.706-.287-1.061s-.172-.712-.251-1.07c-.159-.715-.305-1.434-.447-2.152l-.209-1.079c-.067-.36-.136-.72-.199-1.081l.068-.002-.002.014v-.012c.064.362.132.721.199 1.082l.203 1.082c.136.721.279 1.44.43 2.158.075.359.155.717.239 1.074s.175.712.277 1.064c.101.352.214.701.356 1.039.073.168.152.333.253.486l.038.057.042.054c.027.037.06.068.091.102.067.061.142.115.231.137h-.001l.084-.007c.028-.002.054-.013.081-.018s.053-.018.078-.029c.026-.011.052-.022.075-.038.023-.015.049-.028.071-.045l.066-.053c.022-.017.04-.039.061-.058s.04-.039.058-.061.073-.086.105-.132c.016-.023.035-.045.048-.069l.042-.074.042-.073c.015-.024.026-.05.038-.075l.074-.152.005.002c-.049.1-.101.198-.159.292-.029.047-.06.093-.092.138s-.067.088-.104.13c-.018.021-.038.04-.057.06s-.041.038-.061.056-.087.069-.135.097c-.025.012-.048.028-.074.037-.026.011-.051.021-.078.028-.026.009-.054.013-.081.017s-.055.004-.083.006zm0 0c.028-.002.056-.001.083-.007s.055-.009.081-.018c.027-.007.052-.017.078-.028.026-.01.049-.025.074-.037.048-.028.093-.061.135-.097.02-.019.042-.036.061-.056s.039-.039.057-.061c.037-.041.071-.085.104-.13s.063-.091.092-.138c.058-.095.109-.193.158-.292l.005.003-.073.152c-.013.025-.023.051-.038.075l-.042.073-.042.074c-.013.026-.032.047-.048.07-.032.047-.068.09-.104.133-.017.023-.038.042-.058.062s-.039.041-.061.059l-.066.053c-.022.018-.048.031-.071.046s-.049.028-.076.039c-.026.011-.051.024-.08.03s-.055.017-.083.019l-.086.007h-.001c-.092-.022-.17-.077-.238-.138-.032-.033-.066-.065-.094-.102l-.043-.054-.039-.057c-.103-.153-.185-.319-.26-.486-.146-.337-.264-.686-.369-1.038s-.2-.707-.289-1.063-.172-.714-.251-1.072c-.159-.717-.302-1.437-.442-2.157-.069-.36-.14-.72-.205-1.082s-.133-.723-.195-1.084l-.001-.006.001-.005.002-.012.035-.194.033.193c.062.361.129.721.195 1.081l.199 1.081c.134.72.273 1.439.424 2.156.075.358.155.716.239 1.072s.175.711.278 1.063c.051.176.106.35.165.524.06.173.123.345.195.513.073.168.154.333.255.486l.038.057.043.054c.027.037.061.068.092.102.068.061.144.116.234.138z"/><path d="m14.964 23.335-.052.019c-.018.003-.036.005-.055.008-.091-.022-.169-.077-.237-.139-.032-.033-.066-.065-.093-.103l-.043-.054-.039-.058c-.103-.154-.184-.321-.258-.491s-.137-.344-.199-.518c-.059-.175-.116-.352-.168-.529s-.102-.356-.149-.535c-.048-.179-.093-.358-.138-.538-.089-.359-.172-.72-.252-1.081-.159-.723-.306-1.448-.449-2.175l-.21-1.09-.103-.545c-.035-.183-.066-.364-.099-.547l.064.001-.008.042-.008.041v-.011c.033.182.063.362.099.542l.104.542.211 1.083c.143.721.285 1.443.441 2.162.078.359.159.718.245 1.075s.177.713.28 1.066c.102.353.217.702.359 1.039.074.167.154.332.255.484.049.077.108.146.172.21.067.06.141.112.227.136l-.004-.001c.055-.001.108-.023.155-.054.046-.033.089-.072.125-.117.02-.021.037-.045.054-.068s.034-.047.049-.072.061-.1.089-.151c.111-.207.2-.425.281-.645.02-.055.04-.11.059-.166.021-.055.037-.111.053-.168l.099-.339.196-.679.01.003c-.116.433-.239.864-.39 1.286-.038.105-.078.21-.121.314s-.089.206-.139.306c-.024.051-.053.099-.08.148-.03.047-.057.096-.092.141-.017.022-.033.046-.051.067l-.056.062c-.02.019-.043.036-.064.055-.023.016-.048.029-.072.043zm0 0c.024-.015.049-.027.072-.044.021-.018.043-.036.063-.055l.056-.062c.018-.021.034-.045.051-.067.034-.044.061-.094.091-.141.026-.049.055-.097.079-.148.05-.1.095-.203.138-.306s.082-.208.12-.314c.149-.422.271-.854.385-1.287l.01.003-.192.68-.095.34c-.015.056-.032.114-.052.169-.018.056-.038.111-.058.167-.08.222-.167.441-.277.651-.028.052-.056.104-.089.154-.016.025-.032.05-.05.074s-.035.048-.055.071-.082.088-.13.124c-.051.034-.109.06-.173.062h-.002l-.002-.001c-.094-.025-.173-.08-.244-.142-.067-.066-.128-.137-.179-.215-.105-.154-.188-.32-.264-.488-.147-.339-.266-.689-.371-1.041s-.201-.709-.289-1.066c-.088-.358-.171-.716-.249-1.076-.157-.719-.306-1.44-.446-2.162l-.207-1.084-.102-.542c-.035-.18-.066-.363-.097-.544l-.001-.006.001-.005.008-.044.008-.042.034-.17.03.171.194 1.093.2 1.092c.136.727.276 1.454.428 2.178.154.724.316 1.446.523 2.157.051.178.107.354.166.53.061.174.123.349.197.519s.154.337.256.491l.039.058.043.055c.027.037.061.07.093.103.068.062.145.117.236.14.018-.003.037-.005.055-.008l.052-.019z"/><path d="m5.744 23.335c-.028-.03-.069-.043-.101-.067-.017-.011-.034-.023-.049-.036s-.032-.026-.045-.041c-.059-.056-.106-.124-.149-.193-.024-.033-.04-.071-.06-.106s-.038-.072-.054-.109l-.051-.111-.044-.114c-.031-.075-.056-.153-.081-.23-.027-.077-.05-.155-.072-.233-.047-.156-.084-.315-.123-.473-.037-.159-.07-.318-.104-.477l-.09-.48c-.03-.16-.054-.321-.088-.48s-.063-.318-.102-.476l-.056-.237-.063-.235c-.04-.158-.093-.311-.139-.466-.055-.152-.104-.307-.168-.456-.058-.152-.129-.297-.198-.443l-.116-.213c-.039-.071-.086-.137-.128-.205-.041-.07-.094-.131-.142-.196-.046-.066-.103-.123-.157-.183-.052-.062-.114-.112-.174-.166-.057-.057-.127-.097-.191-.145-.032-.025-.067-.044-.102-.062l-.106-.057c-.072-.035-.149-.058-.223-.088l.009.001h-.081l.007-.061c.079.027.161.048.238.08l.113.054c.038.018.076.035.11.06.143.087.275.191.391.31.119.117.222.248.318.384.045.07.094.137.135.209l.122.217c.073.149.147.297.207.451.067.152.118.309.174.464.026.078.049.158.073.236s.049.158.069.238c.043.159.085.319.12.48.039.16.071.322.103.484.034.161.059.324.088.486l.087.485c.03.161.065.321.099.482.039.159.073.32.119.477.021.079.043.158.069.236.025.078.048.156.079.232l.043.115.049.112c.016.037.033.074.053.11s.036.073.059.106c.043.068.088.136.144.191.013.015.028.028.043.04s.03.025.047.035c.032.025.068.033.108.075l-.021-.01c.054-.001.107-.023.154-.054s.088-.074.127-.117c.038-.045.072-.093.105-.143.031-.05.062-.102.09-.154.112-.211.203-.434.285-.66.021-.057.041-.112.058-.17l.163-.517.192-.695.037.01c-.061.231-.127.461-.196.689s-.144.456-.227.68-.175.446-.288.656c-.057.105-.121.207-.199.298-.039.045-.083.087-.132.12s-.107.056-.167.056zm0 0c.06-.001.117-.025.166-.058s.092-.076.13-.121c.076-.092.138-.194.194-.3.111-.211.198-.434.279-.658.159-.45.285-.91.405-1.372l.037.01-.189.698-.16.518c-.017.058-.038.116-.058.172-.082.227-.172.452-.285.667-.028.054-.059.106-.091.158-.033.051-.068.101-.108.149-.041.046-.083.093-.137.127-.052.035-.114.063-.182.063h-.012l-.009-.01c-.017-.019-.062-.038-.096-.063-.018-.011-.035-.024-.051-.038-.017-.013-.033-.027-.047-.043-.061-.06-.109-.13-.153-.201-.024-.035-.04-.073-.061-.109s-.038-.074-.054-.112l-.05-.114-.044-.116c-.031-.077-.055-.156-.081-.234-.027-.078-.049-.158-.071-.237-.047-.158-.083-.319-.122-.479-.035-.161-.07-.323-.101-.484l-.089-.486c-.03-.161-.055-.324-.09-.484-.033-.161-.065-.322-.104-.481-.036-.16-.078-.319-.122-.477-.02-.079-.044-.158-.069-.236s-.048-.157-.074-.234c-.056-.154-.106-.31-.171-.46-.058-.153-.132-.299-.202-.446l-.119-.214c-.041-.071-.088-.137-.132-.206-.093-.133-.193-.262-.308-.376-.113-.116-.24-.218-.378-.302-.033-.024-.069-.041-.106-.058l-.109-.053c-.074-.031-.153-.052-.229-.078l-.175-.061.268.001.003.001c.077.031.156.056.23.092l.109.059c.037.019.073.039.105.065.066.049.138.092.196.15.061.056.125.108.177.171.055.062.113.12.159.188.048.067.102.129.143.2.043.07.09.137.129.209l.116.216c.069.148.141.295.198.448.064.15.112.306.167.46.046.156.098.311.137.469l.062.236.055.238c.038.158.068.319.1.478.033.16.057.32.086.48l.084.48c.031.159.063.319.097.478.037.158.072.317.117.473.02.079.043.157.068.234.024.078.048.155.078.231l.042.114.049.112c.015.038.033.074.053.11s.036.073.059.107c.043.069.088.137.146.194.013.015.029.029.045.041s.031.026.048.037.073.038.1.069z"/><path d="m28.19 23.388s.92-.526 1.104-2.551c.263-2.839.736-3.838 2.235-4.338h-4.285c-.459.077-.769.329-1.003.823.001.002.001.004.001.005-.001.003-.002.005-.004.007.001.006.002.012.004.019-.311.569-.518 1.475-.699 2.692-.201 1.17-.488 2.176-.869 2.743-.223.362-.479.572-.769.572z"/><path d="m26.224 17.364c-.001-.007-.002-.013-.004-.019-.077.142-.148.304-.213.487-.001.001-.001.002-.001.002-.015.041-.028.087-.042.13-.052.162-.103.334-.151.523-.111.448-.207.973-.296 1.574-.165.964-.389 1.816-.674 2.41-.065.145-.133.276-.205.391.385-.574.675-1.591.879-2.775.183-1.231.393-2.148.707-2.724z"/><path d="m23.57 8.618c-.073.002-.138.037-.195.078-.054.046-.104.098-.146.156-.086.114-.155.24-.216.368-.062.128-.117.26-.169.393s-.099.268-.143.403c-.045.135-.087.272-.128.409s-.079.274-.117.412c-.075.276-.145.553-.21.83-.262 1.112-.484 2.233-.69 3.357l-.023.128-.022-.129-.002-.012.046-.001-.002.009v-.008c.063.361.131.72.199 1.081l.205 1.079c.139.719.283 1.438.439 2.153.078.358.159.715.246 1.07s.18.709.284 1.06c.052.175.107.349.166.522.06.172.124.343.196.51.074.166.154.33.254.479l.038.056.042.052c.026.036.059.066.089.098.065.058.137.108.218.128l-.008-.001c.12-.001.237-.041.338-.11.102-.067.189-.158.266-.255s.144-.205.204-.316c.03-.054.06-.113.085-.167l.074-.177c.026-.059.045-.118.068-.178.021-.06.045-.118.063-.179.039-.121.079-.242.112-.364.036-.122.067-.245.098-.368s.057-.248.087-.372l.076-.374.069-.376.14-.752c.022-.125.055-.25.082-.375l.085-.374c.013-.063.031-.126.049-.186l.053-.184c.036-.123.069-.244.113-.37l-.001.003.091-.244c.016-.04.035-.08.052-.12l.053-.119.035-.081.017.087.004.02-.052-.006.016-.03-.002.017-.095-.569c-.029-.189-.065-.378-.1-.568l-.21-1.134c-.142-.755-.288-1.51-.447-2.262-.079-.376-.163-.751-.25-1.125s-.18-.747-.285-1.117c-.052-.185-.107-.369-.168-.551s-.124-.363-.199-.54c-.074-.177-.155-.352-.259-.513-.027-.04-.052-.081-.083-.117-.015-.019-.029-.038-.045-.056l-.05-.052c-.069-.066-.148-.125-.242-.147h.001l-.174-.001c-.029.001-.058-.002-.087.003l-.022.003c-.007.001-.015.001-.021.004l-.041.016v-.001l.153.001zm0 0-.157.001.044-.018c.007-.003.014-.003.022-.004l.021-.003c.029-.006.058-.003.087-.004l.175-.001c.095.022.176.081.246.147l.051.052c.016.018.03.037.046.056.032.037.057.078.084.117.105.161.189.336.265.512s.142.358.204.54.119.366.173.55c.216.739.389 1.489.55 2.24s.31 1.506.454 2.262l.214 1.133c.035.189.072.377.102.568l.096.568.002.01-.004.008-.015.03-.037.073-.015-.079-.003-.018.052.006-.051.118c-.017.04-.035.078-.051.118l-.089.242-.001.003c-.039.115-.074.24-.108.362l-.053.184c-.018.062-.035.121-.048.184l-.083.372c-.027.125-.058.248-.08.373l-.138.753-.068.377-.076.376c-.029.125-.054.25-.086.374-.031.124-.061.248-.098.371-.033.124-.073.246-.112.368-.018.061-.042.121-.063.182-.023.06-.042.122-.068.18l-.073.177c-.029.061-.057.117-.088.174-.062.113-.13.224-.21.326s-.171.199-.283.272c-.11.075-.243.121-.379.122h-.004l-.004-.001c-.099-.024-.181-.083-.251-.147-.033-.034-.068-.067-.095-.105l-.044-.055-.039-.058c-.103-.156-.184-.323-.258-.491s-.136-.342-.197-.516c-.059-.174-.114-.349-.166-.526-.103-.352-.195-.708-.281-1.064s-.167-.714-.244-1.072c-.154-.717-.295-1.436-.432-2.156l-.202-1.08c-.066-.36-.133-.721-.195-1.082l-.001-.005.001-.004.001-.004.027-.113.019.112.002.013-.046-.001c.105-.562.213-1.123.329-1.683s.238-1.118.376-1.673c.068-.277.141-.554.218-.829.039-.138.078-.275.121-.411s.085-.273.132-.408c.046-.136.095-.27.147-.403s.109-.265.172-.393.133-.254.22-.367c.043-.057.093-.109.148-.155.058-.041.124-.076.197-.077z"/><path d="m26.22 17.345c.001-.002.002-.005.004-.007 0-.002-.001-.004-.001-.005-.001.003-.002.005-.003.007 0 .002 0 .004.001.006z"/><path d="m26.006 17.835c-.014.042-.029.086-.042.13.014-.043.028-.089.042-.13z"/><path d="m26.204 17.37c-.001-.006-.002-.013-.004-.019-.068.144-.133.305-.193.481.066-.183.136-.345.213-.487 0-.002-.001-.004-.001-.005-.005.011-.01.02-.015.03z"/><path d="m24.843 22.472c.285-.594.508-1.447.674-2.41.089-.601.185-1.126.296-1.574-.117.461-.224 1.001-.331 1.63-.159.928-.371 1.756-.639 2.355z"/><path d="m19.099 23.411c.684-.158 1.261-2.102 2.233-7.41.051-.356.126-.687.178-1.018-.006-.032-.011-.064-.017-.098.001-.004.002-.008.003-.012-.001-.005-.002-.009-.003-.014.616-3.176 1.254-5.954 1.895-6.242h-3.786c-.036-.016-.072-.026-.108-.026h-.236c-.657.157-1.235 2.076-2.207 7.41-.02.121-.04.228-.06.342.002.009.003.017.005.025-.001.005-.001.009-.003.013.001.004.002.008.003.013-.408 2.199-.836 4.254-1.265 5.538-.26.805-.521 1.335-.78 1.452z"/><path d="m21.512 14.916c-.001.004-.002.008-.003.012.006.035.012.066.017.099.001-.004.002-.009.002-.013-.006-.032-.011-.064-.017-.098z"/><path d="m16.977 16.435c-.309 1.665-.63 3.246-.953 4.477-.106.41-.212.784-.318 1.113.432-1.293.863-3.362 1.274-5.577-.001-.005-.002-.009-.003-.013z"/><path d="m21.51 14.903c.001.005.002.009.003.014.619-3.218 1.261-6.01 1.905-6.299-.645.29-1.288 3.087-1.908 6.285z"/><path d="m21.533 15.02c.635-3.439 1.349-6.403 2.037-6.403h-.153c-.644.289-1.286 3.081-1.905 6.299.006.034.011.066.017.098 0-.002.001-.004.001-.007.001.004.002.008.002.013z"/><path d="m16.972 16.41c-.261-1.351-.522-2.702-.823-4.045-.151-.671-.31-1.341-.509-1.998-.101-.328-.211-.654-.35-.967-.07-.156-.149-.308-.246-.448-.048-.07-.103-.134-.163-.192-.063-.053-.133-.099-.212-.119l.006.001c-.071.001-.149-.002-.215.003-.017.003-.038.003-.052.009l-.044.018c-.015.007-.029.018-.043.027s-.028.019-.041.032c-.105.092-.184.216-.254.34s-.13.258-.185.391c-.056.133-.105.27-.154.407-.189.549-.338 1.112-.477 1.676-.138.565-.262 1.133-.381 1.703s-.231 1.14-.34 1.712v-.013l.098.546.1.546.203 1.091c.138.727.28 1.453.435 2.176.077.362.158.723.245 1.082.043.18.088.359.135.538s.095.357.147.534c.051.177.107.353.165.528.061.174.123.348.196.517s.154.335.254.487l.038.057.042.053c.027.037.059.068.091.101.066.06.14.113.225.133l-.005-.001c.017-.003.034-.004.051-.008.016-.006.036-.012.048-.018.034-.019.068-.038.093-.063.055-.046.103-.107.147-.168.087-.125.157-.262.221-.4s.12-.282.174-.427c.053-.144.102-.29.15-.437.093-.293.178-.59.257-.887l.21-.9.211-.901c.035-.15.072-.3.1-.451l.091-.453.182-.907.091-.453c.029-.151.063-.302.089-.454zm0 0c-.025.152-.057.303-.085.455l-.087.454-.174.909-.087.454c-.027.152-.062.302-.096.452l-.203.903-.102.451-.104.451c-.078.299-.162.596-.254.89-.047.147-.096.294-.149.439s-.11.289-.174.43c-.065.14-.135.28-.224.409-.046.064-.093.126-.157.179-.031.029-.064.047-.098.067-.022.011-.04.015-.06.023-.02.005-.042.007-.063.01h-.002l-.004-.001c-.097-.023-.178-.081-.248-.145-.033-.034-.068-.067-.095-.105l-.044-.055-.039-.058c-.104-.156-.185-.324-.26-.495s-.138-.345-.199-.52c-.059-.176-.116-.352-.168-.53s-.102-.356-.149-.535c-.048-.179-.093-.359-.137-.539-.088-.36-.17-.721-.249-1.083-.157-.724-.302-1.45-.442-2.176l-.207-1.091-.102-.546-.096-.547-.001-.006.001-.007c.111-.571.225-1.142.346-1.712s.247-1.138.387-1.704c.141-.565.291-1.129.484-1.68.049-.138.099-.275.156-.409s.117-.268.189-.396c.073-.127.153-.254.267-.354.014-.013.029-.025.045-.035s.032-.022.049-.031l.058-.022c.019-.007.036-.006.055-.009.079-.005.147-.001.222-.002h.003l.003.001c.09.023.166.074.234.131.064.062.121.128.17.201.099.144.179.298.249.457.14.316.249.644.349.974.198.66.354 1.331.503 2.003.29 1.345.537 2.699.786 4.053z"/><path d="m16.977 16.435c.001-.004.002-.009.003-.013-.001-.008-.003-.017-.005-.025-.001.005-.002.009-.002.014.002.008.003.016.004.025z"/><path d="m16.956 16.502c-.303 1.63-.616 3.182-.932 4.41.323-1.231.644-2.812.953-4.477-.001-.008-.003-.017-.004-.025-.005.031-.011.06-.016.092z"/><path d="m10.041 23.388c.684-.157 1.233-2.05 2.206-7.359.051-.357.126-.69.179-1.022-.005-.028-.01-.054-.015-.083.245-1.276.494-2.486.746-3.497.377-1.546.764-2.635 1.153-2.809h-4.139c-.657.158-1.235 2.076-2.234 7.411-.068.319-.119.638-.182.958.006.008.012.014.018.022-.001.007-.003.014-.004.022.001.002.003.003.004.005-.39 2.012-.789 3.857-1.192 5.012-.282.834-.567 1.34-.851 1.34h2.939z"/><path d="m12.453 14.953c-.002-.008-.003-.016-.005-.025.235-1.272.477-2.477.723-3.489-.253 1.017-.503 2.232-.75 3.515.005.03.01.056.015.084.002-.01.004-.02.005-.03.004-.019.007-.037.011-.055z"/><path d="m7.757 17.072c-.27 1.39-.544 2.699-.821 3.758-.124.482-.249.915-.374 1.284.405-1.162.807-3.015 1.198-5.037-.002-.002-.003-.003-.004-.005z"/><path d="m13.172 11.44c.418-1.683.843-2.823 1.267-2.823h-.108c-.39.175-.78 1.269-1.159 2.823z"/><path d="m14.476 8.617h-.037c-.424 0-.849 1.14-1.267 2.823-.247 1.012-.489 2.217-.723 3.489.002.009.003.016.005.025.657-3.41 1.34-6.336 2.023-6.336z"/><path d="m4.75 20.716.065.353c.02.118.047.234.071.352s.051.234.08.35c.027.117.059.232.092.347.03.116.071.228.107.342l.064.168c.02.056.048.11.071.164s.055.106.081.159c.014.027.032.05.047.076s.032.05.051.073.076.092.122.129c.022.02.048.035.073.051s.053.027.076.052l-.006-.003c.067-.002.131-.031.184-.072s.099-.092.141-.147c.082-.109.149-.229.208-.352.119-.246.214-.504.3-.764s.163-.523.236-.788c.036-.132.071-.265.104-.397l.091-.401.183-.803.092-.401c.032-.134.055-.269.084-.403l.324-1.613.006.028-.012-.016-.01-.014.003-.016.024-.124.008.03-.108-.123c-.04-.037-.077-.077-.119-.111-.043-.032-.083-.07-.13-.096l-.068-.043-.073-.034c-.047-.025-.1-.038-.151-.056-.052-.015-.105-.024-.158-.035-.053-.005-.109-.014-.16-.015l-1.499-.003-2.665-.014.005-.037c.096.04.197.068.286.124.045.026.093.047.135.078l.126.091c.044.028.079.067.118.101.037.036.079.067.112.107.068.078.142.151.2.236l.092.124c.029.043.055.087.083.131s.056.086.081.132l.073.136c.051.09.092.184.135.278.045.093.081.189.12.285.04.095.073.192.107.29l.051.146.045.148c.029.099.061.196.086.296l.078.299.069.301c.024.1.041.201.062.302s.04.202.057.303l.052.304zm0 0-.054-.304c-.017-.101-.037-.202-.058-.303s-.039-.202-.064-.302l-.07-.3-.079-.298c-.025-.1-.058-.197-.087-.296l-.045-.147-.051-.145c-.034-.097-.067-.194-.108-.289-.039-.095-.075-.191-.121-.283-.044-.093-.086-.187-.137-.276l-.074-.135c-.025-.045-.055-.087-.082-.13s-.055-.087-.084-.129l-.093-.122c-.059-.084-.133-.155-.201-.232-.034-.039-.075-.069-.112-.104-.039-.033-.074-.071-.117-.098l-.125-.088c-.041-.03-.089-.049-.133-.075-.087-.053-.187-.08-.281-.118l-.089-.036 4.258-.018c.06.001.114.01.171.015.056.011.112.02.167.036.054.018.11.032.161.059l.078.036.073.045c.051.028.093.067.138.101.044.036.083.078.124.117l.123.14-.003.018-.024.125-.007-.03.013.019.009.013-.003.015-.332 1.614c-.029.134-.053.27-.085.403l-.095.401-.287 1.201c-.035.134-.072.265-.109.398-.075.264-.156.527-.245.787s-.188.517-.31.764c-.062.123-.13.244-.214.353-.042.055-.09.106-.145.148s-.123.072-.194.073h-.003l-.003-.003c-.018-.02-.046-.033-.071-.049s-.051-.032-.074-.053c-.047-.038-.087-.083-.123-.131-.019-.023-.036-.048-.051-.074s-.033-.05-.047-.077c-.027-.054-.059-.105-.081-.161s-.051-.109-.07-.165l-.063-.168c-.035-.114-.076-.227-.106-.343-.032-.115-.064-.231-.09-.347-.028-.116-.056-.233-.079-.35s-.05-.234-.07-.352l-.064-.353z"/><path d="m7.757 17.072c.001-.007.003-.014.004-.022-.006-.008-.012-.014-.018-.022-.001.007-.002.015-.004.022.006.008.012.014.018.022z"/><path d="m7.715 17.175.012.018c-.26 1.339-.524 2.601-.791 3.638.277-1.059.551-2.368.821-3.758-.006-.008-.012-.014-.018-.022-.008.042-.015.083-.024.125z"/></g></svg>